<svg xmlns="http://www.w3.org/2000/svg" xmlns:xlink="http://www.w3.org/1999/xlink" version="1.1" width="375pt" height="375pt" viewBox="0 0 375 375">
<defs>
<clipPath id="clip_0">
<path transform="matrix(.24,0,0,.24,0,0)" d="M0 0H1562.5V1562.5H0Z" fill-rule="evenodd"/>
</clipPath>
<clipPath id="clip_1">
<path transform="matrix(.24,0,0,.24,0,0)" d="M0 0H1562.5V1562.5H0Z" fill-rule="evenodd"/>
</clipPath>
<clipPath id="clip_2">
<path transform="matrix(.24,0,0,.24,0,0)" d="M0 0H1562.5V1562.5H0Z" fill-rule="evenodd"/>
</clipPath>
<clipPath id="clip_3">
<path transform="matrix(.24,0,0,.24,0,0)" d="M61.296255 574.1183H695.67129V961.6183H61.296255Z" fill-rule="evenodd"/>
</clipPath>
</defs>
<g clip-path="url(#clip_0)">
<path transform="matrix(.75,0,0,.75,0,0)" d="M0 0H500V500H0Z" fill="#ffffff"/>
</g>
<g clip-path="url(#clip_1)">
<path transform="matrix(.75,0,0,.75,0,0)" d="M0 0H500V500H0Z" fill="#ffffff"/>
</g>
<g clip-path="url(#clip_2)">
<text fill="#3d3b3a" xml:space="preserve" transform="matrix(.75 0 0 .75 143.3024 117.115749)" font-size="98.3" font-family="Blanka"><tspan y="117" x="20.3125 82.23953 148.39333 199.7043">UKSK</tspan></text>
<text fill="#3d3b3a" xml:space="preserve" transform="matrix(.75 0 0 .75 98.40702 208.3367)" font-size="38.73" font-family="Montserrat" font-weight="bold"><tspan y="42" x="111.75 150.20188 187.91809 228.77051 267.80317">GROUP</tspan></text>
<text fill="#3d3b3a" xml:space="preserve" transform="matrix(.75 0 0 .75 1.7623276 246.7468)" font-size="23.49" font-family="CrimsonPro" font-weight="bold" font-style="italic"><tspan y="18" x="32.8125 53.61168 77.82802 92.20569 105.41373 122.910419 132.12795 151.84923 169.7358 193.95214 211.01308 225.27608 234.4936 250.95827 268.01924 286.06636 297.46263 311.8403 326.218 342.0405 351.25804 370.9793 388.86589 413.0822 430.14317">Umesh Kumar Sanjeev Kumar</tspan></text>
</g>
<g clip-path="url(#clip_3)">
<path transform="matrix(.31052418,0,0,.30864928,14.711101,137.79038)" d="M247.02147 298.94508H117.68459C114.69037 298.94508 112.26307 296.0941 112.26307 292.5772V86.14241C112.26307 82.62554 114.69037 79.77455 117.68459 79.77455H181.73888 247.02147C250.01569 79.77455 252.443 82.62554 252.443 86.14241V292.5772C252.443 296.0941 250.01569 298.94508 247.02147 298.94508Z" fill="#cad0d9"/>
<path transform="matrix(.31052418,0,0,.30864928,14.711101,137.79038)" d="M486.34327 301.31349H291.2798C289.0708 301.31349 287.2798 299.52247 287.2798 297.31349V269.73243H186.41944C184.21045 269.73243 182.41944 267.9414 182.41944 265.73243V149.29004L74.09424 200.84278V296.13575C74.09424 298.34474 72.30322 300.13575 70.09424 300.13575H4C1.7910156 300.13575 0 298.34474 0 296.13575 0 293.92677 1.7910156 292.13575 4 292.13575H66.09424V198.3164C66.09424 196.77344 66.98193 195.36719 68.37549 194.70508L182.41944 140.43018V4C182.41944 1.7910156 184.21045 0 186.41944 0H289.52589C291.73487 0 293.52589 1.7910156 293.52589 4V93.887699C293.52589 95.430667 292.63819 96.836429 291.24464 97.49951L190.41944 145.48291V261.73243H287.2798V116.117679C287.2798 114.66455 288.06788 113.325199 289.33839 112.62012 290.61085 111.916507 292.1626 111.95459 293.396 112.723148L393.42726 175.09375C394.59913 175.82422 395.31105 177.10742 395.31105 178.48828V265.73243C395.31105 267.9414 393.52003 269.73243 391.31105 269.73243H295.2798V293.31349H486.34327C488.55226 293.31349 490.34327 295.1045 490.34327 297.31349 490.34327 299.52247 488.55226 301.31349 486.34327 301.31349ZM295.2798 261.73243H387.31105V180.70801L295.2798 123.32568V261.73243ZM190.41944 8V136.62305L285.52589 91.36133V8H190.41944Z" fill="#333333"/>
</g>
</svg>
